<svg version="1.1" viewBox="0 0 40 30.909" xmlns="http://www.w3.org/2000/svg">
<path d="m18.733 10.909c1.4028-3.4465 3.4847-5.6105 6.2802-6.3094 1.6233-0.40583 4.0773-3.0188 4.0773-4.5997h3.6364c0 3.2676-3.6066 7.3212-6.8318 8.1275-1.2142 0.30355-2.2686 1.2016-3.1468 2.7816h7.9786c0.3998 0 0.7853 0.0614 1.1476 0.1754 4.6266 0.8776 8.1251 4.9425 8.1251 9.8246 0 5.5228-4.4771 10-10 10-3.1053 0-5.8801-1.4155-7.7143-3.6364h-4.5714c-1.8342 2.2209-4.609 3.6364-7.7143 3.6364-5.5228 0-10-4.4772-10-10 0-4.8821 3.4984-8.947 8.1251-9.8246 0.36221-0.114 0.74772-0.1754 1.1476-0.1754zm-10.915 3.6363c-0.30124 0-0.54545 0.2442-0.54545 0.5455v2.5454c0 0.3013 0.2442 0.5455 0.54545 0.5455h2.5454c0.3013 0 0.5455-0.2442 0.5455-0.5455v-2.5454c0-0.3013-0.2442-0.5455-0.5455-0.5455zm3.0909 4.1818c0-0.3012 0.2442-0.5454 0.5454-0.5454h2.5455c0.3012 0 0.5455 0.2442 0.5455 0.5454v2.5455c0 0.3012-0.2443 0.5455-0.5455 0.5455h-2.5455c-0.3012 0-0.5454-0.2443-0.5454-0.5455zm23.636-2.3636c0 1.0042-0.8141 1.8182-1.8182 1.8182-1.0042 0-1.8182-0.814-1.8182-1.8182 0-1.0041 0.814-1.8182 1.8182-1.8182 1.0041 0 1.8182 0.8141 1.8182 1.8182zm-3.6364 7.2727c1.0041 0 1.8182-0.814 1.8182-1.8181 0-1.0042-0.8141-1.8182-1.8182-1.8182-1.0042 0-1.8182 0.814-1.8182 1.8182 0 1.0041 0.814 1.8181 1.8182 1.8181zm-23.091-1.8181c-0.30124 0-0.54545 0.2442-0.54545 0.5454v2.5455c0 0.3012 0.2442 0.5454 0.54545 0.5454h2.5454c0.3013 0 0.5455-0.2442 0.5455-0.5454v-2.5455c0-0.3012-0.2442-0.5454-0.5455-0.5454zm-4.1818-3.091c0-0.3012 0.24421-0.5454 0.54546-0.5454h2.5454c0.30125 0 0.54546 0.2442 0.54546 0.5454v2.5455c0 0.3012-0.24421 0.5455-0.54546 0.5455h-2.5454c-0.30125 0-0.54546-0.2443-0.54546-0.5455z" clip-rule="evenodd" fill="#F3502F" fill-rule="evenodd"/>
</svg>
