<svg width="52" height="59" viewBox="0 0 52 59" fill="none" xmlns="http://www.w3.org/2000/svg">
<path d="M51.0694 9.38578C42.3213 7.49203 37.1562 4.81419 33.387 2.85625C30.4555 1.34309 28.3383 0.247192 25.9977 0.247192C23.6571 0.247192 21.5445 1.34309 18.613 2.85625C14.8392 4.81419 9.67409 7.49203 0.925995 9.38578L0 9.58754V10.5229C0 45.9952 25.2438 57.8941 25.5044 58.0088L26.0209 58.2472L26.5328 57.9904C26.7887 57.862 52 44.8167 52 10.5229V9.58754L51.0694 9.38578ZM25.309 36.531L16.0537 28.2774L17.6451 26.5533L24.8344 32.9636L35.0994 17.268L37.0864 18.529L25.309 36.531Z" fill="#2D9CDB"/>
</svg>
