<svg width="57" height="38" viewBox="0 0 57 38" fill="none" xmlns="http://www.w3.org/2000/svg">
<path d="M50.1499 17.896C49.8761 11.1538 44.3593 5.75826 37.6214 5.75826C36.4588 5.75826 35.3456 5.90789 34.2413 6.22527C31.6916 2.36678 27.3823 0 22.7991 0C15.4822 0 9.48953 5.82627 9.13939 13.1352C3.78863 14.6178 0 19.6053 0 25.3318C0 32.3188 5.62459 38 12.542 38H46.7429C52.4034 38 57 33.3526 57 27.6351C57 23.2235 54.1675 19.2698 50.1499 17.896ZM28.5 31.5662L20.8554 23.8446L22.4669 22.2169L27.3598 27.159V13.8153H29.6402V27.159L34.5331 22.2169L36.1491 23.8446L28.5 31.5662Z" fill="url(#paint0_linear)"/>
<defs>
<linearGradient id="paint0_linear" x1="4.93977e-07" y1="19.2923" x2="57.6147" y2="21.4297" gradientUnits="userSpaceOnUse">
<stop stop-color="#FF4015"/>
<stop offset="1" stop-color="#FD852E"/>
</linearGradient>
</defs>
</svg>
