<svg width="54" height="54" viewBox="0 0 54 54" fill="none" xmlns="http://www.w3.org/2000/svg">
<path d="M27 0C12.1109 0 0 12.1109 0 27C0 41.8891 12.1109 54 27 54C41.8891 54 54 41.8891 54 27C54 12.1109 41.8891 0 27 0ZM27 10.567C31.7011 10.567 36.0832 12.5686 39.1803 15.9938L42.2635 12.9153V21.1294H34.0447L37.5254 17.6487C34.8675 14.6626 31.0678 12.9153 27 12.9153C19.2342 12.9153 12.9153 19.2342 12.9153 27H10.567C10.567 17.9399 17.9399 10.567 27 10.567ZM27 43.4376C22.3128 43.4376 17.9122 41.4361 14.8151 38.0108L11.7411 41.0894V32.8706H19.9553L16.4746 36.3513C19.1325 39.3421 22.9415 41.0894 27 41.0894C34.7704 41.0894 41.0894 34.7704 41.0894 27H43.4376C43.4376 36.0647 36.0647 43.4376 27 43.4376Z" fill="#27AE60"/>
</svg>
